<svg xmlns="http://www.w3.org/2000/svg" width="960" height="540" viewBox="0 0 960 540">
  <rect width="100%" height="100%" fill="#ffffff"/>
  <text x="480" y="26" text-anchor="middle" font-family="sans-serif" font-size="20" fill="#111827">MiniMax M3 VL NPU generated-model loss</text>
  <line x1="72" y1="42" x2="72" y2="468" stroke="#374151" stroke-width="1.5"/>
  <line x1="72" y1="468" x2="928" y2="468" stroke="#374151" stroke-width="1.5"/>
  <text x="20" y="48" font-family="sans-serif" font-size="13" fill="#374151">5.5500</text>
  <text x="20" y="468" font-family="sans-serif" font-size="13" fill="#374151">4.8606</text>
  <text x="72" y="516" text-anchor="middle" font-family="sans-serif" font-size="13" fill="#374151">1</text>
  <text x="928" y="516" text-anchor="middle" font-family="sans-serif" font-size="13" fill="#374151">8</text>
  <polyline points="72.00,53.29 194.29,42.00 316.57,47.31 438.86,327.31 561.14,303.85 683.43,257.59 805.71,415.85 928.00,468.00" fill="none" stroke="#1d4ed8" stroke-width="3" stroke-linejoin="round" stroke-linecap="round"/>
  <circle cx="72.00" cy="53.29" r="4" fill="#1d4ed8" />
<circle cx="194.29" cy="42.00" r="4" fill="#1d4ed8" />
<circle cx="316.57" cy="47.31" r="4" fill="#1d4ed8" />
<circle cx="438.86" cy="327.31" r="4" fill="#1d4ed8" />
<circle cx="561.14" cy="303.85" r="4" fill="#1d4ed8" />
<circle cx="683.43" cy="257.59" r="4" fill="#1d4ed8" />
<circle cx="805.71" cy="415.85" r="4" fill="#1d4ed8" />
<circle cx="928.00" cy="468.00" r="4" fill="#1d4ed8" />
  <text x="84" y="70" font-family="sans-serif" font-size="14" fill="#111827">first: 5.5318</text>
  <text x="84" y="92" font-family="sans-serif" font-size="14" fill="#111827">last: 4.8606</text>
  <text x="480" y="516" text-anchor="middle" font-family="sans-serif" font-size="14" fill="#374151">training step</text>
</svg>
